<svg width="120" height="31" viewBox="0 0 120 31" fill="none" xmlns="http://www.w3.org/2000/svg">
<path d="M49.688 10.5028L48.0899 12.3817C47.1714 11.5343 45.9774 11.1107 44.5079 11.1107C43.6262 11.0923 42.919 11.2304 42.3863 11.5251C41.872 11.8014 41.6148 12.2067 41.6148 12.7409C41.6332 13.7171 42.6159 14.2973 44.563 14.4815C45.3345 14.5552 45.9958 14.6565 46.5469 14.7855C47.1163 14.896 47.7133 15.0986 48.3379 15.3933C48.9808 15.6696 49.4676 16.0933 49.7982 16.6643C50.1472 17.2353 50.3217 17.9353 50.3217 18.7642C50.3034 20.0536 49.7706 21.0943 48.7236 21.8864C47.6766 22.6784 46.2805 23.0744 44.5355 23.0744C41.8903 23.0744 39.8238 22.2363 38.3359 20.5601L39.8238 18.5431C40.9994 19.851 42.5884 20.5233 44.5906 20.5601C45.3621 20.5601 46.0326 20.4128 46.602 20.118C47.1714 19.8233 47.4653 19.3812 47.4837 18.7918C47.5021 18.2024 47.2449 17.7695 46.7122 17.4932C46.1979 17.2169 45.408 17.0235 44.3426 16.913C40.6688 16.563 38.8227 15.1999 38.8043 12.8237C38.8043 11.4422 39.3738 10.4107 40.5127 9.72919C41.6699 9.02923 42.9833 8.67925 44.4528 8.67925C46.5836 8.67925 48.3287 9.28711 49.688 10.5028Z" fill="#235CEE"/>
<path d="M63.1623 11.1936L63.245 9.03844H66.0003V22.66H63.3001L63.1623 20.4496C62.7398 21.2785 62.0785 21.914 61.1785 22.3561C60.2967 22.7981 59.3967 23.0192 58.4782 23.0192C56.4392 23.0376 54.7677 22.4113 53.4635 21.1403C52.1593 19.8694 51.5072 18.1011 51.5072 15.8354C51.5072 13.625 52.1684 11.8935 53.491 10.641C54.832 9.37 56.5127 8.73451 58.5333 8.73451C59.5069 8.73451 60.4161 8.95555 61.2611 9.39763C62.1061 9.83971 62.7398 10.4384 63.1623 11.1936ZM58.7537 11.3317C57.5046 11.3317 56.4576 11.7462 55.6126 12.5751C54.7677 13.3855 54.3452 14.4723 54.3452 15.8354C54.3452 17.1985 54.7677 18.2945 55.6126 19.1234C56.4576 19.9523 57.5046 20.3667 58.7537 20.3667C59.562 20.3667 60.2784 20.2009 60.9029 19.8694C61.5458 19.5378 62.0234 19.1049 62.3357 18.5708C62.6663 18.0366 62.9051 17.4564 63.0521 16.8301C63.2174 16.1854 63.2174 15.5407 63.0521 14.896C62.9051 14.2513 62.6663 13.6618 62.3357 13.1277C62.0234 12.5935 61.5458 12.1606 60.9029 11.8291C60.2784 11.4975 59.562 11.3317 58.7537 11.3317Z" fill="#235CEE"/>
<path d="M68.8037 9.03844H71.6417V16.3327C71.6417 17.5116 71.9631 18.4602 72.6061 19.1786C73.2673 19.897 74.1766 20.2562 75.3339 20.2562C76.436 20.2562 77.3361 19.8602 78.0341 19.0681C78.7505 18.276 79.1087 17.2998 79.1087 16.1393V9.03844H81.9467V22.6876H79.3842L79.2189 20.6706C77.9331 22.1442 76.3717 22.881 74.5348 22.881C72.8265 22.881 71.4396 22.3008 70.3742 21.1403C69.3272 19.9799 68.8037 18.3866 68.8037 16.3604V9.03844Z" fill="#235CEE"/>
<path d="M92.3447 11.4146C91.1324 11.4146 90.1037 11.8291 89.2587 12.658C88.4137 13.4869 87.9913 14.546 87.9913 15.8354C87.9913 17.1432 88.4046 18.2116 89.2312 19.0405C90.0761 19.8694 91.114 20.2838 92.3447 20.2838C93.5571 20.2838 94.5765 19.8786 95.4032 19.0681C96.2298 18.2392 96.6431 17.1616 96.6431 15.8354C96.6431 14.4723 96.2298 13.3948 95.4032 12.6027C94.5949 11.8106 93.5754 11.4146 92.3447 11.4146ZM84.9879 3.34668H87.8259V11.1659C88.2484 10.4107 88.9189 9.82129 89.8373 9.39763C90.7742 8.95555 91.6926 8.73451 92.5927 8.73451C94.6133 8.73451 96.2665 9.36079 97.5523 10.6133C98.8382 11.8475 99.4811 13.5882 99.4811 15.8354C99.4811 18.0274 98.829 19.7589 97.5248 21.0298C96.2206 22.3008 94.5582 22.9363 92.5376 22.9363C90.3884 22.9363 88.8179 22.1258 87.8259 20.5049L87.6606 22.66H84.9879V3.34668Z" fill="#235CEE"/>
<path d="M102.753 10.7791C104.057 9.43447 105.747 8.76214 107.823 8.76214C109.898 8.76214 111.588 9.44368 112.893 10.8068C114.215 12.1514 114.876 13.8368 114.876 15.863C114.876 17.9076 114.224 19.6023 112.92 20.9469C111.634 22.2732 109.935 22.9363 107.823 22.9363C105.729 22.9363 104.039 22.2732 102.753 20.9469C101.467 19.6023 100.824 17.9076 100.824 15.863C100.824 13.8184 101.467 12.1238 102.753 10.7791ZM107.823 11.387C106.574 11.387 105.563 11.8199 104.792 12.6856C104.039 13.5513 103.662 14.6105 103.662 15.863C103.662 17.1156 104.039 18.1655 104.792 19.0128C105.545 19.8602 106.555 20.2838 107.823 20.2838C109.09 20.2838 110.1 19.8602 110.854 19.0128C111.625 18.1655 112.011 17.1156 112.011 15.863C112.011 14.6289 111.616 13.579 110.826 12.7132C110.036 11.8291 109.035 11.387 107.823 11.387Z" fill="#235CEE"/>
<path d="M117.16 3.34668H119.998V22.66H117.16V3.34668Z" fill="#235CEE"/>
<path d="M0 8.525C0 3.81678 3.80622 0 8.50143 0H22.4129C27.1081 0 30.9143 3.81677 30.9143 8.525V22.475C30.9143 27.1832 27.1081 31 22.4129 31H8.50143C3.80622 31 0 27.1832 0 22.475V8.525Z" fill="#235CEE"/>
<path d="M14.5418 16.2696V17.4788H16.3742V16.2696H17.5813V14.4321H16.3742V13.2217H14.5418V14.4321H13.3359V16.2696H14.5418Z" fill="#E92F2F"/>
<path fill-rule="evenodd" clip-rule="evenodd" d="M12.2881 9.44395C10.9143 9.44395 9.80118 10.561 9.80118 11.9377C9.80118 13.3153 10.9151 14.4315 12.2881 14.4315V16.269C9.90348 16.269 7.96875 14.3305 7.96875 11.9377C7.96875 9.54654 9.9019 7.60645 12.2881 7.60645H21.7699V11.9377H19.9375V9.44395H12.2881Z" fill="white"/>
<path fill-rule="evenodd" clip-rule="evenodd" d="M21.1094 18.7624C21.1094 17.3849 19.9955 16.2687 18.6225 16.2687V14.4312C21.0071 14.4312 22.9418 16.3697 22.9418 18.7624C22.9418 21.1536 21.0087 23.0937 18.6225 23.0937H9.14062V18.7624H10.9731V21.2562H18.6225C19.9962 21.2562 21.1094 20.1392 21.1094 18.7624Z" fill="white"/>
</svg>
